<svg viewBox="0 0 16 16" fill="none" xmlns="http://www.w3.org/2000/svg" id="Notion-Logo--Streamline-Radix" height="16" width="16">
  <desc>
    Notion Logo Streamline Icon: https://streamlinehq.com
  </desc>
  <path d="M3.4749973333333335 3.324629333333333c0.4478933333333333 0.3638613333333333 0.6159146666666667 0.33609599999999995 1.4569386666666666 0.2799893333333333l7.928970666666667 -0.476096c0.16810666666666665 0 0.028266666666666666 -0.16776533333333332 -0.027733333333333332 -0.195648l-1.3169066666666667 -0.9519573333333333c-0.25226666666666664 -0.19588266666666665 -0.58848 -0.420224 -1.2327146666666666 -0.36410666666666663l-7.6776 0.5599786666666666c-0.2799893333333333 0.027765333333333333 -0.3359253333333333 0.16775466666666666 -0.22440533333333335 0.27997866666666665l1.0934506666666666 0.8678613333333334Zm0.47604266666666667 1.8478186666666665v8.342645333333333c0 0.44832 0.22405333333333333 0.6161066666666667 0.728352 0.5883733333333333l8.713887999999999 -0.5042133333333333c0.5045333333333333 -0.027733333333333332 0.5607466666666666 -0.3362133333333333 0.5607466666666666 -0.7003733333333333V4.612234666666667c0 -0.3636373333333333 -0.13984 -0.559744 -0.4487466666666667 -0.5317546666666667l-9.106112 0.5317546666666667c-0.33604266666666666 0.02823466666666667 -0.44812799999999997 0.19633066666666665 -0.44812799999999997 0.5602133333333333Zm8.602346666666667 0.44752c0.05589333333333334 0.252224 0 0.5042133333333333 -0.2526933333333333 0.5325546666666666l-0.41984 0.083648v6.159029333333334c-0.36458666666666667 0.19594666666666666 -0.7006933333333334 0.3079466666666667 -0.9808 0.3079466666666667 -0.44848 0 -0.5608000000000001 -0.14005333333333334 -0.8967253333333333 -0.5597866666666667L7.257013333333333 7.831989333333333v4.171424l0.869024 0.19605333333333333s0 0.50368 -0.70112 0.50368l-1.9328746666666667 0.11210666666666666c-0.05614933333333333 -0.11210666666666666 0 -0.39178666666666667 0.19605333333333333 -0.4478933333333333l0.5043946666666667 -0.13973333333333335V6.712277333333334l-0.7003306666666667 -0.05611733333333333c-0.05616 -0.252224 0.08372266666666667 -0.6158613333333334 0.47626666666666667 -0.644096l2.0735466666666666 -0.13976533333333335L10.900053333333332 10.239786666666667V6.37616l-0.728704 -0.08363733333333333c-0.055936 -0.30833066666666664 0.167904 -0.532224 0.44812799999999997 -0.5599893333333332l1.9339093333333333 -0.11256533333333334Zm-10.592063999999999 -4.19904L9.947274666666667 0.8328394666666666C10.927999999999999 0.7487274666666667 11.180266666666666 0.8050698666666667 11.796693333333334 1.2528213333333333l2.5491200000000003 1.7917013333333334c0.4206933333333333 0.30810666666666664 0.5608533333333334 0.3919893333333333 0.5608533333333334 0.7278613333333334v9.826869333333333c0 0.6157866666666667 -0.22432 0.9800533333333332 -1.0087466666666667 1.0357333333333334l-9.274005333333333 0.5601066666666666c-0.5888106666666667 0.028053333333333333 -0.8690453333333332 -0.05589333333333334 -1.1773973333333332 -0.44810666666666665l-1.8772799999999998 -2.4356266666666664c-0.33638399999999996 -0.44832 -0.47626666666666667 -0.7837866666666666 -0.47626666666666667 -1.1762133333333333V2.4004373333333335c0 -0.5036373333333334 0.22440533333333335 -0.9237333333333333 0.868352 -0.9795093333333333Z" fill="#000000" stroke-width="1.0667"></path>
</svg>